<mxfile host="app.diagrams.net" agent="Mozilla/5.0 (Windows NT 10.0; Win64; x64) AppleWebKit/537.36 (KHTML, like Gecko) Chrome/137.0.0.0 Safari/537.36" version="27.1.4">
  <diagram id="C5RBs43oDa-KdzZeNtuy" name="Page-1">
    <mxGraphModel dx="2253" dy="1964" grid="1" gridSize="10" guides="1" tooltips="1" connect="1" arrows="1" fold="1" page="1" pageScale="1" pageWidth="827" pageHeight="1169" math="0" shadow="0">
      <root>
        <mxCell id="WIyWlLk6GJQsqaUBKTNV-0" />
        <mxCell id="WIyWlLk6GJQsqaUBKTNV-1" parent="WIyWlLk6GJQsqaUBKTNV-0" />
        <mxCell id="4vbNxgcKXTkhY_OgfdEm-7" value="Attack" style="rounded=1;whiteSpace=wrap;html=1;" parent="WIyWlLk6GJQsqaUBKTNV-1" vertex="1">
          <mxGeometry x="140" y="800" width="50" height="20" as="geometry" />
        </mxCell>
        <mxCell id="VlmmOaFZX-fwfYbXSt0C-12" value="" style="rounded=0;whiteSpace=wrap;html=1;" parent="WIyWlLk6GJQsqaUBKTNV-1" vertex="1">
          <mxGeometry x="140" y="270" width="130" height="70" as="geometry" />
        </mxCell>
        <mxCell id="VlmmOaFZX-fwfYbXSt0C-0" value="행동 트리&lt;div&gt;(Behaviour tree)&lt;/div&gt;" style="rounded=1;whiteSpace=wrap;html=1;" parent="WIyWlLk6GJQsqaUBKTNV-1" vertex="1">
          <mxGeometry x="30" y="20" width="120" height="60" as="geometry" />
        </mxCell>
        <mxCell id="VlmmOaFZX-fwfYbXSt0C-8" style="edgeStyle=orthogonalEdgeStyle;rounded=0;orthogonalLoop=1;jettySize=auto;html=1;entryX=0.5;entryY=0;entryDx=0;entryDy=0;" parent="WIyWlLk6GJQsqaUBKTNV-1" source="VlmmOaFZX-fwfYbXSt0C-1" target="VlmmOaFZX-fwfYbXSt0C-2" edge="1">
          <mxGeometry relative="1" as="geometry" />
        </mxCell>
        <mxCell id="VlmmOaFZX-fwfYbXSt0C-1" value="Root" style="rounded=1;whiteSpace=wrap;html=1;" parent="WIyWlLk6GJQsqaUBKTNV-1" vertex="1">
          <mxGeometry x="100" y="90" width="100" height="50" as="geometry" />
        </mxCell>
        <mxCell id="VlmmOaFZX-fwfYbXSt0C-6" style="edgeStyle=orthogonalEdgeStyle;rounded=0;orthogonalLoop=1;jettySize=auto;html=1;" parent="WIyWlLk6GJQsqaUBKTNV-1" source="VlmmOaFZX-fwfYbXSt0C-2" target="VlmmOaFZX-fwfYbXSt0C-4" edge="1">
          <mxGeometry relative="1" as="geometry" />
        </mxCell>
        <mxCell id="VlmmOaFZX-fwfYbXSt0C-2" value="Control flow&lt;div&gt;(Composite)&lt;/div&gt;" style="rounded=1;whiteSpace=wrap;html=1;" parent="WIyWlLk6GJQsqaUBKTNV-1" vertex="1">
          <mxGeometry x="100" y="180" width="100" height="50" as="geometry" />
        </mxCell>
        <mxCell id="VlmmOaFZX-fwfYbXSt0C-3" value="현재 실행 가능한 노드를 찾아서&amp;nbsp;&lt;div&gt;탐색하여 행동을 결정하는 트리&lt;/div&gt;" style="text;html=1;align=left;verticalAlign=middle;whiteSpace=wrap;rounded=0;" parent="WIyWlLk6GJQsqaUBKTNV-1" vertex="1">
          <mxGeometry x="160" y="20" width="200" height="60" as="geometry" />
        </mxCell>
        <mxCell id="VlmmOaFZX-fwfYbXSt0C-4" value="Execution" style="rounded=1;whiteSpace=wrap;html=1;" parent="WIyWlLk6GJQsqaUBKTNV-1" vertex="1">
          <mxGeometry x="40" y="280" width="100" height="50" as="geometry" />
        </mxCell>
        <mxCell id="VlmmOaFZX-fwfYbXSt0C-5" value="Execution" style="rounded=1;whiteSpace=wrap;html=1;" parent="WIyWlLk6GJQsqaUBKTNV-1" vertex="1">
          <mxGeometry x="150" y="280" width="100" height="50" as="geometry" />
        </mxCell>
        <mxCell id="VlmmOaFZX-fwfYbXSt0C-7" style="edgeStyle=orthogonalEdgeStyle;rounded=0;orthogonalLoop=1;jettySize=auto;html=1;entryX=0.575;entryY=0.055;entryDx=0;entryDy=0;entryPerimeter=0;" parent="WIyWlLk6GJQsqaUBKTNV-1" source="VlmmOaFZX-fwfYbXSt0C-2" target="VlmmOaFZX-fwfYbXSt0C-5" edge="1">
          <mxGeometry relative="1" as="geometry" />
        </mxCell>
        <mxCell id="VlmmOaFZX-fwfYbXSt0C-10" value="Node의 반환타입:&lt;div&gt;Success : 상위로 Success 반환하여 상위노드가 추가 로직을 처리하도록 함&lt;/div&gt;&lt;div&gt;Failure :&amp;nbsp;&lt;span style=&quot;background-color: initial;&quot;&gt;상위로 Failure 반환하여 상위노드가 추가 로직을 처리하도록 함&lt;/span&gt;&lt;/div&gt;&lt;div&gt;Running : 탐색을 멈추고, 다음 Tick 에서 Running 을 반환했던 노드를 바로 실행하도록 함.&lt;/div&gt;" style="text;html=1;align=left;verticalAlign=middle;whiteSpace=wrap;rounded=0;" parent="WIyWlLk6GJQsqaUBKTNV-1" vertex="1">
          <mxGeometry x="250" y="90" width="430" height="70" as="geometry" />
        </mxCell>
        <mxCell id="VlmmOaFZX-fwfYbXSt0C-11" value="트리의 탐색단위:&lt;div&gt;Tick&lt;/div&gt;" style="text;html=1;align=center;verticalAlign=middle;whiteSpace=wrap;rounded=0;" parent="WIyWlLk6GJQsqaUBKTNV-1" vertex="1">
          <mxGeometry x="250" y="185" width="100" height="40" as="geometry" />
        </mxCell>
        <mxCell id="VlmmOaFZX-fwfYbXSt0C-13" value="Decorator" style="text;html=1;align=center;verticalAlign=middle;whiteSpace=wrap;rounded=0;" parent="WIyWlLk6GJQsqaUBKTNV-1" vertex="1">
          <mxGeometry x="210" y="260" width="60" height="30" as="geometry" />
        </mxCell>
        <mxCell id="VlmmOaFZX-fwfYbXSt0C-15" value="Root" style="rounded=1;whiteSpace=wrap;html=1;" parent="WIyWlLk6GJQsqaUBKTNV-1" vertex="1">
          <mxGeometry x="300" y="250" width="80" height="20" as="geometry" />
        </mxCell>
        <mxCell id="VlmmOaFZX-fwfYbXSt0C-16" value="최상단 노드. 탐색 시작점, 특별한 동작 없음. (보통 자식으로는 Composite 노드만 추가 가능)" style="text;html=1;align=left;verticalAlign=middle;whiteSpace=wrap;rounded=0;" parent="WIyWlLk6GJQsqaUBKTNV-1" vertex="1">
          <mxGeometry x="380" y="250" width="320" height="40" as="geometry" />
        </mxCell>
        <mxCell id="VlmmOaFZX-fwfYbXSt0C-18" value="Composite" style="rounded=1;whiteSpace=wrap;html=1;" parent="WIyWlLk6GJQsqaUBKTNV-1" vertex="1">
          <mxGeometry x="300" y="310" width="80" height="20" as="geometry" />
        </mxCell>
        <mxCell id="VlmmOaFZX-fwfYbXSt0C-19" value="여러 자식노드들을 포함하여 하나의 그룹객체형태로 취급할 수 있는 노드.&amp;nbsp;" style="text;html=1;align=left;verticalAlign=middle;whiteSpace=wrap;rounded=0;" parent="WIyWlLk6GJQsqaUBKTNV-1" vertex="1">
          <mxGeometry x="380" y="310" width="320" height="40" as="geometry" />
        </mxCell>
        <mxCell id="VlmmOaFZX-fwfYbXSt0C-20" value="Sequence" style="rounded=1;whiteSpace=wrap;html=1;" parent="WIyWlLk6GJQsqaUBKTNV-1" vertex="1">
          <mxGeometry x="340" y="360" width="80" height="20" as="geometry" />
        </mxCell>
        <mxCell id="VlmmOaFZX-fwfYbXSt0C-21" value="Selector" style="rounded=1;whiteSpace=wrap;html=1;" parent="WIyWlLk6GJQsqaUBKTNV-1" vertex="1">
          <mxGeometry x="340" y="410" width="80" height="20" as="geometry" />
        </mxCell>
        <mxCell id="VlmmOaFZX-fwfYbXSt0C-22" value="Parallel" style="rounded=1;whiteSpace=wrap;html=1;" parent="WIyWlLk6GJQsqaUBKTNV-1" vertex="1">
          <mxGeometry x="340" y="460" width="80" height="20" as="geometry" />
        </mxCell>
        <mxCell id="VlmmOaFZX-fwfYbXSt0C-24" value="자식 노드들을 연속된 과정으로 취급.&lt;div&gt;-&amp;gt; 자식 탐색중 자식이 실패를 반환하면 탐색종료&lt;/div&gt;" style="text;html=1;align=left;verticalAlign=middle;whiteSpace=wrap;rounded=0;" parent="WIyWlLk6GJQsqaUBKTNV-1" vertex="1">
          <mxGeometry x="420" y="360" width="280" height="40" as="geometry" />
        </mxCell>
        <mxCell id="VlmmOaFZX-fwfYbXSt0C-25" value="자식 노드들에서 성공한 자식만 선택하여 취급.&lt;div&gt;-&amp;gt; 자식 탐색중 자식이 성공을 반환하면 탐색 종료&lt;/div&gt;" style="text;html=1;align=left;verticalAlign=middle;whiteSpace=wrap;rounded=0;" parent="WIyWlLk6GJQsqaUBKTNV-1" vertex="1">
          <mxGeometry x="420" y="410" width="280" height="40" as="geometry" />
        </mxCell>
        <mxCell id="VlmmOaFZX-fwfYbXSt0C-26" value="모든자식을 탐색하고, 성공 정책 조건에 따라 상위에 결과를 반환." style="text;html=1;align=left;verticalAlign=middle;whiteSpace=wrap;rounded=0;" parent="WIyWlLk6GJQsqaUBKTNV-1" vertex="1">
          <mxGeometry x="420" y="460" width="280" height="40" as="geometry" />
        </mxCell>
        <mxCell id="VlmmOaFZX-fwfYbXSt0C-27" value="Execution" style="rounded=1;whiteSpace=wrap;html=1;" parent="WIyWlLk6GJQsqaUBKTNV-1" vertex="1">
          <mxGeometry x="300" y="510" width="80" height="20" as="geometry" />
        </mxCell>
        <mxCell id="VlmmOaFZX-fwfYbXSt0C-28" value="실행할 내용이 있는 말단 노드. 자식을 가지지 않음.&amp;nbsp;&lt;div&gt;실행할 내용을 실행하고 그 결과를 상위에 반환&lt;/div&gt;" style="text;html=1;align=left;verticalAlign=middle;whiteSpace=wrap;rounded=0;" parent="WIyWlLk6GJQsqaUBKTNV-1" vertex="1">
          <mxGeometry x="380" y="510" width="320" height="40" as="geometry" />
        </mxCell>
        <mxCell id="VlmmOaFZX-fwfYbXSt0C-29" value="Decorator" style="rounded=1;whiteSpace=wrap;html=1;" parent="WIyWlLk6GJQsqaUBKTNV-1" vertex="1">
          <mxGeometry x="300" y="560" width="80" height="20" as="geometry" />
        </mxCell>
        <mxCell id="VlmmOaFZX-fwfYbXSt0C-30" value="꾸밈 노드.&amp;nbsp;&lt;div&gt;꾸며진 노드의 실행 조건을 부여할때 주로 사용&lt;/div&gt;&lt;div&gt;(If 문, for 문 등)&lt;/div&gt;" style="text;html=1;align=left;verticalAlign=middle;whiteSpace=wrap;rounded=0;" parent="WIyWlLk6GJQsqaUBKTNV-1" vertex="1">
          <mxGeometry x="380" y="560" width="320" height="40" as="geometry" />
        </mxCell>
        <mxCell id="VlmmOaFZX-fwfYbXSt0C-32" value="&amp;lt;&amp;lt;abstract&amp;gt;&amp;gt;&lt;div&gt;Node&lt;/div&gt;" style="swimlane;fontStyle=1;align=center;verticalAlign=top;childLayout=stackLayout;horizontal=1;startSize=40;horizontalStack=0;resizeParent=1;resizeParentMax=0;resizeLast=0;collapsible=1;marginBottom=0;whiteSpace=wrap;html=1;" parent="WIyWlLk6GJQsqaUBKTNV-1" vertex="1">
          <mxGeometry x="900" y="200" width="160" height="100" as="geometry" />
        </mxCell>
        <mxCell id="VlmmOaFZX-fwfYbXSt0C-33" value="- blackboard : Blackboard" style="text;strokeColor=none;fillColor=none;align=left;verticalAlign=top;spacingLeft=4;spacingRight=4;overflow=hidden;rotatable=0;points=[[0,0.5],[1,0.5]];portConstraint=eastwest;whiteSpace=wrap;html=1;" parent="VlmmOaFZX-fwfYbXSt0C-32" vertex="1">
          <mxGeometry y="40" width="160" height="26" as="geometry" />
        </mxCell>
        <mxCell id="VlmmOaFZX-fwfYbXSt0C-34" value="" style="line;strokeWidth=1;fillColor=none;align=left;verticalAlign=middle;spacingTop=-1;spacingLeft=3;spacingRight=3;rotatable=0;labelPosition=right;points=[];portConstraint=eastwest;strokeColor=inherit;" parent="VlmmOaFZX-fwfYbXSt0C-32" vertex="1">
          <mxGeometry y="66" width="160" height="8" as="geometry" />
        </mxCell>
        <mxCell id="VlmmOaFZX-fwfYbXSt0C-35" value="+ Invoke() : Result" style="text;strokeColor=none;fillColor=none;align=left;verticalAlign=top;spacingLeft=4;spacingRight=4;overflow=hidden;rotatable=0;points=[[0,0.5],[1,0.5]];portConstraint=eastwest;whiteSpace=wrap;html=1;" parent="VlmmOaFZX-fwfYbXSt0C-32" vertex="1">
          <mxGeometry y="74" width="160" height="26" as="geometry" />
        </mxCell>
        <mxCell id="VlmmOaFZX-fwfYbXSt0C-37" value="«enum»&lt;br&gt;&lt;b&gt;Result&lt;/b&gt;&lt;div&gt;&lt;b&gt;&lt;br&gt;&lt;/b&gt;&lt;/div&gt;&lt;div&gt;&lt;b&gt;Success&lt;/b&gt;&lt;/div&gt;&lt;div&gt;&lt;b&gt;Failure&lt;/b&gt;&lt;/div&gt;&lt;div&gt;&lt;b&gt;Running&lt;/b&gt;&lt;/div&gt;" style="html=1;whiteSpace=wrap;" parent="WIyWlLk6GJQsqaUBKTNV-1" vertex="1">
          <mxGeometry x="780" y="190" width="100" height="100" as="geometry" />
        </mxCell>
        <mxCell id="VlmmOaFZX-fwfYbXSt0C-40" style="edgeStyle=orthogonalEdgeStyle;rounded=0;orthogonalLoop=1;jettySize=auto;html=1;entryX=0.5;entryY=0;entryDx=0;entryDy=0;" parent="WIyWlLk6GJQsqaUBKTNV-1" source="VlmmOaFZX-fwfYbXSt0C-38" target="VlmmOaFZX-fwfYbXSt0C-42" edge="1">
          <mxGeometry relative="1" as="geometry">
            <mxPoint x="90" y="430" as="targetPoint" />
          </mxGeometry>
        </mxCell>
        <mxCell id="VlmmOaFZX-fwfYbXSt0C-38" value="Root" style="rounded=1;whiteSpace=wrap;html=1;" parent="WIyWlLk6GJQsqaUBKTNV-1" vertex="1">
          <mxGeometry x="50" y="380" width="80" height="30" as="geometry" />
        </mxCell>
        <mxCell id="VlmmOaFZX-fwfYbXSt0C-41" value="Seek" style="rounded=1;whiteSpace=wrap;html=1;" parent="WIyWlLk6GJQsqaUBKTNV-1" vertex="1">
          <mxGeometry x="20" y="500" width="50" height="20" as="geometry" />
        </mxCell>
        <mxCell id="VlmmOaFZX-fwfYbXSt0C-44" style="edgeStyle=orthogonalEdgeStyle;rounded=0;orthogonalLoop=1;jettySize=auto;html=1;" parent="WIyWlLk6GJQsqaUBKTNV-1" source="VlmmOaFZX-fwfYbXSt0C-42" target="VlmmOaFZX-fwfYbXSt0C-41" edge="1">
          <mxGeometry relative="1" as="geometry" />
        </mxCell>
        <mxCell id="VlmmOaFZX-fwfYbXSt0C-46" style="edgeStyle=orthogonalEdgeStyle;rounded=0;orthogonalLoop=1;jettySize=auto;html=1;" parent="WIyWlLk6GJQsqaUBKTNV-1" source="VlmmOaFZX-fwfYbXSt0C-42" target="VlmmOaFZX-fwfYbXSt0C-45" edge="1">
          <mxGeometry relative="1" as="geometry" />
        </mxCell>
        <mxCell id="VlmmOaFZX-fwfYbXSt0C-77" style="edgeStyle=orthogonalEdgeStyle;rounded=0;orthogonalLoop=1;jettySize=auto;html=1;" parent="WIyWlLk6GJQsqaUBKTNV-1" source="VlmmOaFZX-fwfYbXSt0C-42" target="VlmmOaFZX-fwfYbXSt0C-76" edge="1">
          <mxGeometry relative="1" as="geometry">
            <Array as="points">
              <mxPoint x="90" y="480" />
              <mxPoint x="185" y="480" />
            </Array>
          </mxGeometry>
        </mxCell>
        <mxCell id="VlmmOaFZX-fwfYbXSt0C-42" value="Sequence" style="rounded=1;whiteSpace=wrap;html=1;" parent="WIyWlLk6GJQsqaUBKTNV-1" vertex="1">
          <mxGeometry x="50" y="440" width="80" height="20" as="geometry" />
        </mxCell>
        <mxCell id="VlmmOaFZX-fwfYbXSt0C-45" value="Attack" style="rounded=1;whiteSpace=wrap;html=1;" parent="WIyWlLk6GJQsqaUBKTNV-1" vertex="1">
          <mxGeometry x="90" y="500" width="50" height="20" as="geometry" />
        </mxCell>
        <mxCell id="VlmmOaFZX-fwfYbXSt0C-48" value="target : ??" style="rounded=0;whiteSpace=wrap;html=1;" parent="WIyWlLk6GJQsqaUBKTNV-1" vertex="1">
          <mxGeometry x="150" y="380" width="100" height="70" as="geometry" />
        </mxCell>
        <mxCell id="VlmmOaFZX-fwfYbXSt0C-51" value="Blackboard" style="rounded=0;whiteSpace=wrap;html=1;" parent="WIyWlLk6GJQsqaUBKTNV-1" vertex="1">
          <mxGeometry x="150" y="360" width="80" height="20" as="geometry" />
        </mxCell>
        <mxCell id="VlmmOaFZX-fwfYbXSt0C-53" value="Blackboard" style="swimlane;fontStyle=1;align=center;verticalAlign=top;childLayout=stackLayout;horizontal=1;startSize=30;horizontalStack=0;resizeParent=1;resizeParentMax=0;resizeLast=0;collapsible=1;marginBottom=0;whiteSpace=wrap;html=1;" parent="WIyWlLk6GJQsqaUBKTNV-1" vertex="1">
          <mxGeometry x="1020" y="96" width="160" height="38" as="geometry" />
        </mxCell>
        <mxCell id="VlmmOaFZX-fwfYbXSt0C-55" value="" style="line;strokeWidth=1;fillColor=none;align=left;verticalAlign=middle;spacingTop=-1;spacingLeft=3;spacingRight=3;rotatable=0;labelPosition=right;points=[];portConstraint=eastwest;strokeColor=inherit;" parent="VlmmOaFZX-fwfYbXSt0C-53" vertex="1">
          <mxGeometry y="30" width="160" height="8" as="geometry" />
        </mxCell>
        <mxCell id="VlmmOaFZX-fwfYbXSt0C-57" value="Tree" style="swimlane;fontStyle=1;align=center;verticalAlign=top;childLayout=stackLayout;horizontal=1;startSize=30;horizontalStack=0;resizeParent=1;resizeParentMax=0;resizeLast=0;collapsible=1;marginBottom=0;whiteSpace=wrap;html=1;" parent="WIyWlLk6GJQsqaUBKTNV-1" vertex="1">
          <mxGeometry x="770" y="96" width="160" height="38" as="geometry" />
        </mxCell>
        <mxCell id="VlmmOaFZX-fwfYbXSt0C-58" value="" style="line;strokeWidth=1;fillColor=none;align=left;verticalAlign=middle;spacingTop=-1;spacingLeft=3;spacingRight=3;rotatable=0;labelPosition=right;points=[];portConstraint=eastwest;strokeColor=inherit;" parent="VlmmOaFZX-fwfYbXSt0C-57" vertex="1">
          <mxGeometry y="30" width="160" height="8" as="geometry" />
        </mxCell>
        <mxCell id="VlmmOaFZX-fwfYbXSt0C-59" value="1" style="endArrow=open;html=1;endSize=12;startArrow=diamondThin;startSize=14;startFill=1;edgeStyle=orthogonalEdgeStyle;align=left;verticalAlign=bottom;rounded=0;" parent="WIyWlLk6GJQsqaUBKTNV-1" source="VlmmOaFZX-fwfYbXSt0C-57" target="VlmmOaFZX-fwfYbXSt0C-53" edge="1">
          <mxGeometry x="-1" y="3" relative="1" as="geometry">
            <mxPoint x="850" y="240" as="sourcePoint" />
            <mxPoint x="1010" y="240" as="targetPoint" />
          </mxGeometry>
        </mxCell>
        <mxCell id="VlmmOaFZX-fwfYbXSt0C-60" value="1" style="endArrow=open;html=1;endSize=12;startArrow=diamondThin;startSize=14;startFill=1;edgeStyle=orthogonalEdgeStyle;align=left;verticalAlign=bottom;rounded=0;entryX=0.5;entryY=0;entryDx=0;entryDy=0;" parent="WIyWlLk6GJQsqaUBKTNV-1" source="VlmmOaFZX-fwfYbXSt0C-57" target="VlmmOaFZX-fwfYbXSt0C-32" edge="1">
          <mxGeometry x="-1" y="3" relative="1" as="geometry">
            <mxPoint x="850" y="240" as="sourcePoint" />
            <mxPoint x="1010" y="240" as="targetPoint" />
            <Array as="points">
              <mxPoint x="980" y="115" />
            </Array>
          </mxGeometry>
        </mxCell>
        <mxCell id="VlmmOaFZX-fwfYbXSt0C-62" value="Root" style="swimlane;fontStyle=1;align=center;verticalAlign=top;childLayout=stackLayout;horizontal=1;startSize=30;horizontalStack=0;resizeParent=1;resizeParentMax=0;resizeLast=0;collapsible=1;marginBottom=0;whiteSpace=wrap;html=1;" parent="WIyWlLk6GJQsqaUBKTNV-1" vertex="1">
          <mxGeometry x="1170" y="200" width="160" height="38" as="geometry" />
        </mxCell>
        <mxCell id="VlmmOaFZX-fwfYbXSt0C-63" value="" style="line;strokeWidth=1;fillColor=none;align=left;verticalAlign=middle;spacingTop=-1;spacingLeft=3;spacingRight=3;rotatable=0;labelPosition=right;points=[];portConstraint=eastwest;strokeColor=inherit;" parent="VlmmOaFZX-fwfYbXSt0C-62" vertex="1">
          <mxGeometry y="30" width="160" height="8" as="geometry" />
        </mxCell>
        <mxCell id="VlmmOaFZX-fwfYbXSt0C-64" value="" style="endArrow=block;endSize=16;endFill=0;html=1;rounded=0;" parent="WIyWlLk6GJQsqaUBKTNV-1" source="VlmmOaFZX-fwfYbXSt0C-62" target="VlmmOaFZX-fwfYbXSt0C-32" edge="1">
          <mxGeometry width="160" relative="1" as="geometry">
            <mxPoint x="1080" y="300" as="sourcePoint" />
            <mxPoint x="1240" y="300" as="targetPoint" />
          </mxGeometry>
        </mxCell>
        <mxCell id="VlmmOaFZX-fwfYbXSt0C-65" value="Exeuction" style="swimlane;fontStyle=1;align=center;verticalAlign=top;childLayout=stackLayout;horizontal=1;startSize=30;horizontalStack=0;resizeParent=1;resizeParentMax=0;resizeLast=0;collapsible=1;marginBottom=0;whiteSpace=wrap;html=1;" parent="WIyWlLk6GJQsqaUBKTNV-1" vertex="1">
          <mxGeometry x="1170" y="250" width="160" height="64" as="geometry" />
        </mxCell>
        <mxCell id="VlmmOaFZX-fwfYbXSt0C-68" value="+ execute : Func&amp;lt;Result&amp;gt;" style="text;strokeColor=none;fillColor=none;align=left;verticalAlign=top;spacingLeft=4;spacingRight=4;overflow=hidden;rotatable=0;points=[[0,0.5],[1,0.5]];portConstraint=eastwest;whiteSpace=wrap;html=1;" parent="VlmmOaFZX-fwfYbXSt0C-65" vertex="1">
          <mxGeometry y="30" width="160" height="26" as="geometry" />
        </mxCell>
        <mxCell id="VlmmOaFZX-fwfYbXSt0C-66" value="" style="line;strokeWidth=1;fillColor=none;align=left;verticalAlign=middle;spacingTop=-1;spacingLeft=3;spacingRight=3;rotatable=0;labelPosition=right;points=[];portConstraint=eastwest;strokeColor=inherit;" parent="VlmmOaFZX-fwfYbXSt0C-65" vertex="1">
          <mxGeometry y="56" width="160" height="8" as="geometry" />
        </mxCell>
        <mxCell id="VlmmOaFZX-fwfYbXSt0C-67" value="" style="endArrow=block;endSize=16;endFill=0;html=1;rounded=0;" parent="WIyWlLk6GJQsqaUBKTNV-1" source="VlmmOaFZX-fwfYbXSt0C-65" target="VlmmOaFZX-fwfYbXSt0C-32" edge="1">
          <mxGeometry width="160" relative="1" as="geometry">
            <mxPoint x="1180" y="238" as="sourcePoint" />
            <mxPoint x="1070" y="251" as="targetPoint" />
          </mxGeometry>
        </mxCell>
        <mxCell id="VlmmOaFZX-fwfYbXSt0C-69" value="Decorator" style="swimlane;fontStyle=1;align=center;verticalAlign=top;childLayout=stackLayout;horizontal=1;startSize=30;horizontalStack=0;resizeParent=1;resizeParentMax=0;resizeLast=0;collapsible=1;marginBottom=0;whiteSpace=wrap;html=1;" parent="WIyWlLk6GJQsqaUBKTNV-1" vertex="1">
          <mxGeometry x="1170" y="326" width="160" height="64" as="geometry" />
        </mxCell>
        <mxCell id="VlmmOaFZX-fwfYbXSt0C-70" value="+ condition : Func&amp;lt;bool&amp;gt;" style="text;strokeColor=none;fillColor=none;align=left;verticalAlign=top;spacingLeft=4;spacingRight=4;overflow=hidden;rotatable=0;points=[[0,0.5],[1,0.5]];portConstraint=eastwest;whiteSpace=wrap;html=1;" parent="VlmmOaFZX-fwfYbXSt0C-69" vertex="1">
          <mxGeometry y="30" width="160" height="26" as="geometry" />
        </mxCell>
        <mxCell id="VlmmOaFZX-fwfYbXSt0C-71" value="" style="line;strokeWidth=1;fillColor=none;align=left;verticalAlign=middle;spacingTop=-1;spacingLeft=3;spacingRight=3;rotatable=0;labelPosition=right;points=[];portConstraint=eastwest;strokeColor=inherit;" parent="VlmmOaFZX-fwfYbXSt0C-69" vertex="1">
          <mxGeometry y="56" width="160" height="8" as="geometry" />
        </mxCell>
        <mxCell id="VlmmOaFZX-fwfYbXSt0C-72" value="" style="endArrow=block;endSize=16;endFill=0;html=1;rounded=0;" parent="WIyWlLk6GJQsqaUBKTNV-1" source="VlmmOaFZX-fwfYbXSt0C-69" target="VlmmOaFZX-fwfYbXSt0C-32" edge="1">
          <mxGeometry width="160" relative="1" as="geometry">
            <mxPoint x="1180" y="283" as="sourcePoint" />
            <mxPoint x="1070" y="269" as="targetPoint" />
          </mxGeometry>
        </mxCell>
        <mxCell id="VlmmOaFZX-fwfYbXSt0C-73" value="&lt;div&gt;&amp;lt;&amp;lt;abstract&amp;gt;&amp;gt;&lt;/div&gt;Composite" style="swimlane;fontStyle=1;align=center;verticalAlign=top;childLayout=stackLayout;horizontal=1;startSize=40;horizontalStack=0;resizeParent=1;resizeParentMax=0;resizeLast=0;collapsible=1;marginBottom=0;whiteSpace=wrap;html=1;" parent="WIyWlLk6GJQsqaUBKTNV-1" vertex="1">
          <mxGeometry x="1170" y="400" width="160" height="74" as="geometry" />
        </mxCell>
        <mxCell id="VlmmOaFZX-fwfYbXSt0C-74" value="+ currentChildIndex : int" style="text;strokeColor=none;fillColor=none;align=left;verticalAlign=top;spacingLeft=4;spacingRight=4;overflow=hidden;rotatable=0;points=[[0,0.5],[1,0.5]];portConstraint=eastwest;whiteSpace=wrap;html=1;" parent="VlmmOaFZX-fwfYbXSt0C-73" vertex="1">
          <mxGeometry y="40" width="160" height="26" as="geometry" />
        </mxCell>
        <mxCell id="VlmmOaFZX-fwfYbXSt0C-75" value="" style="line;strokeWidth=1;fillColor=none;align=left;verticalAlign=middle;spacingTop=-1;spacingLeft=3;spacingRight=3;rotatable=0;labelPosition=right;points=[];portConstraint=eastwest;strokeColor=inherit;" parent="VlmmOaFZX-fwfYbXSt0C-73" vertex="1">
          <mxGeometry y="66" width="160" height="8" as="geometry" />
        </mxCell>
        <mxCell id="VlmmOaFZX-fwfYbXSt0C-76" value="Rest" style="rounded=1;whiteSpace=wrap;html=1;" parent="WIyWlLk6GJQsqaUBKTNV-1" vertex="1">
          <mxGeometry x="160" y="500" width="50" height="20" as="geometry" />
        </mxCell>
        <mxCell id="VlmmOaFZX-fwfYbXSt0C-78" value="«interface»&lt;br&gt;&lt;b&gt;IParentOfChild&lt;/b&gt;&lt;div&gt;&lt;b&gt;&lt;br&gt;&lt;/b&gt;&lt;/div&gt;&lt;div&gt;&lt;b&gt;{get, set} child : Node&lt;/b&gt;&lt;/div&gt;" style="html=1;whiteSpace=wrap;" parent="WIyWlLk6GJQsqaUBKTNV-1" vertex="1">
          <mxGeometry x="920" y="320" width="140" height="70" as="geometry" />
        </mxCell>
        <mxCell id="VlmmOaFZX-fwfYbXSt0C-81" value="" style="endArrow=block;endSize=16;endFill=0;html=1;rounded=0;fillColor=#1ba1e2;strokeColor=#006EAF;" parent="WIyWlLk6GJQsqaUBKTNV-1" source="VlmmOaFZX-fwfYbXSt0C-69" target="VlmmOaFZX-fwfYbXSt0C-78" edge="1">
          <mxGeometry width="160" relative="1" as="geometry">
            <mxPoint x="1180" y="291" as="sourcePoint" />
            <mxPoint x="1070" y="368" as="targetPoint" />
            <Array as="points">
              <mxPoint x="1120" y="360" />
            </Array>
          </mxGeometry>
        </mxCell>
        <mxCell id="VlmmOaFZX-fwfYbXSt0C-82" value="«interface»&lt;br&gt;&lt;b&gt;IParentOfChildren&lt;/b&gt;&lt;div&gt;&lt;b&gt;&lt;br&gt;&lt;/b&gt;&lt;/div&gt;&lt;div&gt;&lt;b&gt;{get, set} children : List&amp;lt;Node&amp;gt;&lt;/b&gt;&lt;/div&gt;" style="html=1;whiteSpace=wrap;" parent="WIyWlLk6GJQsqaUBKTNV-1" vertex="1">
          <mxGeometry x="920" y="397" width="140" height="70" as="geometry" />
        </mxCell>
        <mxCell id="VlmmOaFZX-fwfYbXSt0C-83" value="" style="endArrow=block;endSize=16;endFill=0;html=1;rounded=0;fillColor=#d80073;strokeColor=#A50040;" parent="WIyWlLk6GJQsqaUBKTNV-1" source="VlmmOaFZX-fwfYbXSt0C-73" target="VlmmOaFZX-fwfYbXSt0C-82" edge="1">
          <mxGeometry width="160" relative="1" as="geometry">
            <mxPoint x="1180" y="336" as="sourcePoint" />
            <mxPoint x="1070" y="292" as="targetPoint" />
          </mxGeometry>
        </mxCell>
        <mxCell id="4vbNxgcKXTkhY_OgfdEm-11" style="edgeStyle=orthogonalEdgeStyle;rounded=0;orthogonalLoop=1;jettySize=auto;html=1;entryX=0.5;entryY=0;entryDx=0;entryDy=0;" parent="WIyWlLk6GJQsqaUBKTNV-1" source="4vbNxgcKXTkhY_OgfdEm-1" target="4vbNxgcKXTkhY_OgfdEm-9" edge="1">
          <mxGeometry relative="1" as="geometry" />
        </mxCell>
        <mxCell id="4vbNxgcKXTkhY_OgfdEm-1" value="Root" style="rounded=1;whiteSpace=wrap;html=1;" parent="WIyWlLk6GJQsqaUBKTNV-1" vertex="1">
          <mxGeometry x="190" y="610" width="80" height="30" as="geometry" />
        </mxCell>
        <mxCell id="4vbNxgcKXTkhY_OgfdEm-2" value="Seek" style="rounded=1;whiteSpace=wrap;html=1;" parent="WIyWlLk6GJQsqaUBKTNV-1" vertex="1">
          <mxGeometry x="70" y="800" width="50" height="20" as="geometry" />
        </mxCell>
        <mxCell id="4vbNxgcKXTkhY_OgfdEm-3" style="edgeStyle=orthogonalEdgeStyle;rounded=0;orthogonalLoop=1;jettySize=auto;html=1;" parent="WIyWlLk6GJQsqaUBKTNV-1" source="4vbNxgcKXTkhY_OgfdEm-6" target="4vbNxgcKXTkhY_OgfdEm-2" edge="1">
          <mxGeometry relative="1" as="geometry" />
        </mxCell>
        <mxCell id="4vbNxgcKXTkhY_OgfdEm-4" style="edgeStyle=orthogonalEdgeStyle;rounded=0;orthogonalLoop=1;jettySize=auto;html=1;" parent="WIyWlLk6GJQsqaUBKTNV-1" source="4vbNxgcKXTkhY_OgfdEm-6" target="4vbNxgcKXTkhY_OgfdEm-7" edge="1">
          <mxGeometry relative="1" as="geometry" />
        </mxCell>
        <mxCell id="4vbNxgcKXTkhY_OgfdEm-6" value="Sequence" style="rounded=1;whiteSpace=wrap;html=1;" parent="WIyWlLk6GJQsqaUBKTNV-1" vertex="1">
          <mxGeometry x="100" y="740" width="80" height="20" as="geometry" />
        </mxCell>
        <mxCell id="4vbNxgcKXTkhY_OgfdEm-12" style="edgeStyle=orthogonalEdgeStyle;rounded=0;orthogonalLoop=1;jettySize=auto;html=1;" parent="WIyWlLk6GJQsqaUBKTNV-1" source="4vbNxgcKXTkhY_OgfdEm-9" target="4vbNxgcKXTkhY_OgfdEm-6" edge="1">
          <mxGeometry relative="1" as="geometry">
            <Array as="points">
              <mxPoint x="230" y="710" />
              <mxPoint x="140" y="710" />
            </Array>
          </mxGeometry>
        </mxCell>
        <mxCell id="4vbNxgcKXTkhY_OgfdEm-9" value="Selector" style="rounded=1;whiteSpace=wrap;html=1;" parent="WIyWlLk6GJQsqaUBKTNV-1" vertex="1">
          <mxGeometry x="190" y="670" width="80" height="20" as="geometry" />
        </mxCell>
        <mxCell id="4vbNxgcKXTkhY_OgfdEm-17" style="edgeStyle=orthogonalEdgeStyle;rounded=0;orthogonalLoop=1;jettySize=auto;html=1;" parent="WIyWlLk6GJQsqaUBKTNV-1" source="4vbNxgcKXTkhY_OgfdEm-13" target="4vbNxgcKXTkhY_OgfdEm-15" edge="1">
          <mxGeometry relative="1" as="geometry" />
        </mxCell>
        <mxCell id="4vbNxgcKXTkhY_OgfdEm-18" style="edgeStyle=orthogonalEdgeStyle;rounded=0;orthogonalLoop=1;jettySize=auto;html=1;" parent="WIyWlLk6GJQsqaUBKTNV-1" source="4vbNxgcKXTkhY_OgfdEm-13" target="4vbNxgcKXTkhY_OgfdEm-16" edge="1">
          <mxGeometry relative="1" as="geometry" />
        </mxCell>
        <mxCell id="4vbNxgcKXTkhY_OgfdEm-13" value="&lt;div&gt;Random&lt;/div&gt;Selector" style="rounded=1;whiteSpace=wrap;html=1;" parent="WIyWlLk6GJQsqaUBKTNV-1" vertex="1">
          <mxGeometry x="260" y="740" width="80" height="40" as="geometry" />
        </mxCell>
        <mxCell id="4vbNxgcKXTkhY_OgfdEm-14" style="edgeStyle=orthogonalEdgeStyle;rounded=0;orthogonalLoop=1;jettySize=auto;html=1;entryX=0.5;entryY=0;entryDx=0;entryDy=0;exitX=0.5;exitY=1;exitDx=0;exitDy=0;" parent="WIyWlLk6GJQsqaUBKTNV-1" source="4vbNxgcKXTkhY_OgfdEm-9" target="4vbNxgcKXTkhY_OgfdEm-13" edge="1">
          <mxGeometry relative="1" as="geometry">
            <mxPoint x="240" y="700" as="sourcePoint" />
            <mxPoint x="150" y="750" as="targetPoint" />
            <Array as="points">
              <mxPoint x="230" y="710" />
              <mxPoint x="300" y="710" />
            </Array>
          </mxGeometry>
        </mxCell>
        <mxCell id="4vbNxgcKXTkhY_OgfdEm-15" value="Patrol" style="rounded=1;whiteSpace=wrap;html=1;" parent="WIyWlLk6GJQsqaUBKTNV-1" vertex="1">
          <mxGeometry x="235" y="820" width="50" height="20" as="geometry" />
        </mxCell>
        <mxCell id="4vbNxgcKXTkhY_OgfdEm-16" value="Monitor" style="rounded=1;whiteSpace=wrap;html=1;" parent="WIyWlLk6GJQsqaUBKTNV-1" vertex="1">
          <mxGeometry x="315" y="820" width="50" height="20" as="geometry" />
        </mxCell>
        <mxCell id="4vbNxgcKXTkhY_OgfdEm-19" value="current" style="text;html=1;align=center;verticalAlign=middle;whiteSpace=wrap;rounded=0;" parent="WIyWlLk6GJQsqaUBKTNV-1" vertex="1">
          <mxGeometry x="15" y="600" width="55" height="20" as="geometry" />
        </mxCell>
        <mxCell id="4vbNxgcKXTkhY_OgfdEm-21" value="Composite&lt;div&gt;Stack&lt;/div&gt;" style="text;html=1;align=center;verticalAlign=middle;whiteSpace=wrap;rounded=0;" parent="WIyWlLk6GJQsqaUBKTNV-1" vertex="1">
          <mxGeometry x="-80" y="660" width="60" height="30" as="geometry" />
        </mxCell>
        <mxCell id="4vbNxgcKXTkhY_OgfdEm-22" value="Selector" style="rounded=1;whiteSpace=wrap;html=1;" parent="WIyWlLk6GJQsqaUBKTNV-1" vertex="1">
          <mxGeometry x="-10" y="690" width="80" height="20" as="geometry" />
        </mxCell>
        <mxCell id="4vbNxgcKXTkhY_OgfdEm-23" value="Sequence" style="rounded=1;whiteSpace=wrap;html=1;" parent="WIyWlLk6GJQsqaUBKTNV-1" vertex="1">
          <mxGeometry x="-90" y="570" width="80" height="20" as="geometry" />
        </mxCell>
        <mxCell id="4vbNxgcKXTkhY_OgfdEm-24" value="&lt;div&gt;Random&lt;/div&gt;Selector" style="rounded=1;whiteSpace=wrap;html=1;" parent="WIyWlLk6GJQsqaUBKTNV-1" vertex="1">
          <mxGeometry x="-10" y="640" width="80" height="40" as="geometry" />
        </mxCell>
        <mxCell id="CqiWRwK7o8ucsTosmfy5-0" value="본인 프로젝트에&lt;br&gt;NPC 의 행동패턴&lt;br&gt;퀘스트 관리&lt;br&gt;다이얼로그시스템&lt;br&gt;그 외 연출 로직&amp;nbsp;&lt;br&gt;필요하다면 사용해보는게 좋음. 과제전형에서 많이 사용함" style="rounded=0;whiteSpace=wrap;html=1;fillColor=#f8cecc;strokeColor=#b85450;fontSize=21;" vertex="1" parent="WIyWlLk6GJQsqaUBKTNV-1">
          <mxGeometry x="430" y="-70" width="590" height="160" as="geometry" />
        </mxCell>
        <mxCell id="CqiWRwK7o8ucsTosmfy5-4" value="" style="endArrow=block;endSize=16;endFill=0;html=1;rounded=0;fillColor=#1ba1e2;strokeColor=#006EAF;" edge="1" parent="WIyWlLk6GJQsqaUBKTNV-1" source="VlmmOaFZX-fwfYbXSt0C-62" target="VlmmOaFZX-fwfYbXSt0C-78">
          <mxGeometry width="160" relative="1" as="geometry">
            <mxPoint x="1300" y="371" as="sourcePoint" />
            <mxPoint x="1190" y="370" as="targetPoint" />
            <Array as="points">
              <mxPoint x="1110" y="219" />
              <mxPoint x="1110" y="360" />
            </Array>
          </mxGeometry>
        </mxCell>
      </root>
    </mxGraphModel>
  </diagram>
</mxfile>
